#!OML:ASF F:\VICON\USERDATA\INSTALL\SteveWalk\SteveWalk.ASF
:FULLY-SPECIFIED
:DEGREES
354
root 0.630176 15.8771 31.204 17.5618 8.29022 2.73217
lowerback -16.6058 -3.33914 -2.99728
upperback -5.01107 -3.92305 0.61114
thorax 4.18062 -1.93477 1.55396
lowerneck -3.13263 -0.745913 -1.34301
upperneck 8.42136 -1.04378 1.52295
head 3.26896 -0.503464 0.689724
rclavicle -6.66162e-015 -7.95139e-015
rhumerus -105.791 -30.6007 23.9218
rradius 10.8791
rwrist 69.8703
rhand -15.7718 -37.7738
rfingers 7.12502
rthumb 10.4203 -427.496
lclavicle -6.66162e-015 -7.95139e-015
lhumerus -10.7179 -8.06544 81.5892
lradius 44.4754
lwrist 8.4312
lhand -23.0697 -18.332
lfingers 7.12502
lthumb 3.37582 11.6211
rfemur -50.0567 -9.73664 24.7401
rtibia 19.4211
rfoot -16.5792 7.40588
rtoes -8.46935
lfemur 1.45301 2.02483 -21.8587
ltibia 19.0334
lfoot -21.117 -11.247
ltoes -26.2571
355
root 0.594732 15.8309 31.391 17.2161 7.45827 2.475
lowerback -15.4966 -3.09963 -3.17042
upperback -5.17941 -3.63504 0.82014
thorax 3.42023 -1.7847 1.9869
lowerneck -3.44046 -0.740597 -1.26946
upperneck 8.68089 -1.01708 1.24589
head 3.41404 -0.497236 0.587715
rclavicle 6.97144e-015 3.37934e-015
rhumerus -106.313 -30.0143 25.6609
rradius 10.8698
rwrist 71.6147
rhand -15.5241 -37.2683
rfingers 7.12502
rthumb 10.6592 -426.978
lclavicle 6.97144e-015 3.37934e-015
lhumerus -11.0232 -7.87864 81.5617
lradius 45.593
lwrist 9.37586
lhand -23.9684 -19.0686
lfingers 7.12502
lthumb 2.50786 10.8964
rfemur -49.3808 -5.75737 22.4789
rtibia 20.5885
rfoot -15.2628 3.88189
rtoes -11.6784
lfemur 1.91515 1.81246 -21.5974
ltibia 19.7005
lfoot -19.8218 -11.2977
ltoes -27.7813
356
root 0.614315 15.8062 31.6539 17.2703 7.38125 2.30441
lowerback -15.9069 -3.05801 -2.59981
upperback -5.23544 -3.657 0.900165
thorax 3.55319 -1.79673 1.72876
lowerneck -3.07265 -0.583007 -1.27212
upperneck 8.40375 -0.789986 1.03998
head 3.24272 -0.393536 0.529483
rclavicle 9.64727e-015 -3.97569e-015
rhumerus -106.329 -29.5755 26.5547
rradius 10.848
rwrist 72.6355
rhand -15.3445 -37.2094
rfingers 7.12502
rthumb 10.8325 -426.91
lclavicle 9.64727e-015 -3.97569e-015
lhumerus -11.4644 -7.74022 81.487
lradius 46.5993
lwrist 10.3025
lhand -24.7131 -19.7423
lfingers 7.12502
lthumb 1.78862 10.23
rfemur -49.3659 -5.84712 22.8096
rtibia 22.1441
rfoot -14.5401 3.76943
rtoes -18.3807
lfemur 2.28917 1.3672 -21.3844
ltibia 20.3877
lfoot -18.771 -11.8614
ltoes -28.8931
357
root 0.615969 15.7877 31.9249 17.2052 7.73712 2.31766
lowerback -16.1551 -3.18416 -2.40478
upperback -5.24843 -3.85026 1.00085
thorax 3.67633 -1.89255 1.67585
lowerneck -3.04773 -0.542447 -1.3289
upperneck 8.40815 -0.715285 0.834108
head 3.23741 -0.36598 0.475212
rclavicle 3.03271e-014 -1.23246e-014
rhumerus -105.751 -29.4524 26.012
rradius 10.817
rwrist 72.2274
rhand -15.3967 -37.1277
rfingers 7.12502
rthumb 10.7821 -426.831
lclavicle 3.03271e-014 -1.23246e-014
lhumerus -12.1374 -7.71436 81.48
lradius 47.8156
lwrist 11.2369
lhand -25.2254 -20.3817
lfingers 7.12502
lthumb 1.29388 9.59409
rfemur -49.0787 -6.30384 23.2698
rtibia 23.6263
rfoot -13.3961 2.69444
rtoes -24.9876
lfemur 2.71521 0.661987 -21.101
ltibia 21.3744
lfoot -18.2097 -12.637
ltoes -31.2863
358
root 0.610442 15.783 32.1786 17.1408 7.60144 2.07369
lowerback -16.1186 -3.06498 -2.03588
upperback -5.37796 -3.75824 1.13987
thorax 3.50255 -1.84487 1.63838
lowerneck -3.06705 -0.516841 -1.42025
upperneck 8.54619 -0.659132 0.639968
head 3.28735 -0.348539 0.430293
rclavicle 5.80824e-015 4.77083e-015
rhumerus -104.68 -29.4461 24.326
rradius 10.8014
rwrist 70.7263
rhand -15.6648 -36.7593
rfingers 7.12502
rthumb 10.5235 -426.476
lclavicle 5.80824e-015 4.77083e-015
lhumerus -12.948 -7.58978 81.5274
lradius 48.9748
lwrist 11.8381
lhand -25.4757 -20.7157
lfingers 7.12502
lthumb 1.05212 9.26146
rfemur -49.1578 -5.72966 23.4281
rtibia 25.3326
rfoot -11.5087 1.87675
rtoes -25.5298
lfemur 3.01067 0.231726 -20.749
ltibia 22.2774
lfoot -16.8112 -14.5912
ltoes -31.1616
359
root 0.615046 15.7921 32.4356 17.194 7.49188 1.77558
lowerback -16.3035 -2.95472 -1.478
upperback -5.49222 -3.70271 1.28223
thorax 3.45341 -1.81695 1.47992
lowerneck -3.07376 -0.413098 -1.45199
upperneck 8.57426 -0.498112 0.406713
head 3.29536 -0.27854 0.366033
rclavicle -4.59565e-014 2.46493e-014
rhumerus -103.671 -29.5304 22.8145
rradius 10.7654
rwrist 69.5632
rhand -15.6476 -36.4027
rfingers 7.12502
rthumb 10.5401 -426.118
lclavicle -4.59565e-014 2.46493e-014
lhumerus -13.6291 -7.37005 81.592
lradius 49.7918
lwrist 12.4798
lhand -25.7344 -20.3
lfingers 7.12502
lthumb 0.802271 9.67827
rfemur -49.3688 -4.75884 23.0229
rtibia 26.7997
rfoot -8.16706 1.6306
rtoes -18.3163
lfemur 2.82871 -0.223683 -20.4194
ltibia 23.759
lfoot -13.3461 -14.3746
ltoes -26.3051
360
root 0.612214 15.7899 32.6902 17.4199 7.35042 1.70115
lowerback -16.6153 -2.93994 -1.29549
upperback -5.6043 -3.71399 1.43097
thorax 3.49925 -1.82137 1.52036
lowerneck -3.25821 -0.305982 -1.44104
upperneck 8.67112 -0.32478 0.0886064
head 3.36115 -0.204701 0.267258
rclavicle 3.62782e-014 -3.97569e-015
rhumerus -103.517 -29.5972 23.1179
rradius 10.6744
rwrist 70.1068
rhand -15.6653 -36.1131
rfingers 7.12502
rthumb 10.5231 -425.83
lclavicle 3.62782e-014 -3.97569e-015
lhumerus -14.3643 -7.05142 81.7334
lradius 50.5789
lwrist 13.3579
lhand -25.9796 -19.8302
lfingers 7.12502
lthumb 0.565408 10.1488
rfemur -49.6895 -3.61545 22.1855
rtibia 27.9871
rfoot -6.57178 1.26904
rtoes -12.0903
lfemur 2.03613 -0.515631 -20.2981
ltibia 25.9712
lfoot -10.4579 -14.8361
ltoes -22.6486
361
root 0.610202 15.7761 32.9242 17.6159 6.98264 1.54275
lowerback -16.8252 -2.8134 -1.04148
upperback -5.60593 -3.59401 1.57788
thorax 3.59851 -1.7624 1.54642
lowerneck -3.7622 -0.259303 -1.42621
upperneck 8.85741 -0.222516 -0.266174
head 3.52137 -0.168825 0.152881
rclavicle 2.15309e-014 1.59028e-014
rhumerus -103.569 -29.9921 23.4634
rradius 10.6859
rwrist 70.6063
rhand -15.8022 -36.0058
rfingers 7.12502
rthumb 10.391 -425.729
lclavicle 2.15309e-014 1.59028e-014
lhumerus -15.0751 -6.47517 81.8876
lradius 51.4139
lwrist 13.9877
lhand -25.8324 -20.4786
lfingers 7.12502
lthumb 0.707616 9.49993
rfemur -49.9749 -2.56768 21.7327
rtibia 29.1352
rfoot -5.90174 0.794399
rtoes -17.0291
lfemur 0.874664 -0.506395 -20.1761
ltibia 28.6979
lfoot -7.42497 -15.4063
ltoes -20.4738
362
root 0.626207 15.7704 33.1535 17.6825 6.80721 0.837901
lowerback -16.6343 -2.535 0.137216
upperback -5.84464 -3.42125 1.75387
thorax 3.18261 -1.68023 1.11666
lowerneck -3.96056 -0.208138 -1.32325
upperneck 9.05726 -0.12052 -0.661312
head 3.62847 -0.132619 0.0093801
rclavicle -1.42876e-015 -7.15625e-015
rhumerus -102.553 -30.3068 21.6225
rradius 10.8456
rwrist 69.2204
rhand -15.8579 -36.0365
rfingers 7.12502
rthumb 10.3373 -425.762
lclavicle -1.42876e-015 -7.15625e-015
lhumerus -16.259 -5.99027 82.0777
lradius 52.0735
lwrist 14.458
lhand -25.6654 -20.8436
lfingers 7.12502
lthumb 0.868913 9.1344
rfemur -49.9691 -2.16646 22.4424
rtibia 30.4193
rfoot -5.606 0.587766
rtoes -23.3437
lfemur -0.477769 -0.3936 -19.467
ltibia 31.7228
lfoot -3.38478 -15.8887
ltoes -16.4781
363
root 0.641018 15.772 33.3985 17.6597 6.81222 0.0558206
lowerback -16.6992 -2.32827 1.33442
upperback -5.93564 -3.34784 1.99212
thorax 3.06521 -1.64997 0.707553
lowerneck -4.01155 -0.163363 -1.4523
upperneck 8.93792 -0.0415231 -0.765049
head 3.59651 -0.101415 0.00147602
rclavicle -3.27001e-014 1.35174e-014
rhumerus -101.751 -30.7695 20.2795
rradius 10.9539
rwrist 68.2656
rhand -15.6611 -36.0928
rfingers 7.12502
rthumb 10.5271 -425.809
lclavicle -3.27001e-014 1.35174e-014
lhumerus -17.4151 -5.5305 82.3172
lradius 52.6817
lwrist 14.79
lhand -25.9486 -20.0783
lfingers 7.12502
lthumb 0.59538 9.90064
rfemur -49.8013 -2.05315 23.4218
rtibia 31.8423
rfoot -5.71368 0.695989
rtoes -24.5995
lfemur -1.86083 -0.238947 -18.5532
ltibia 34.8477
lfoot 1.41785 -16.1312
ltoes -9.856
364
root 0.654969 15.7745 33.6472 17.6591 6.73556 -0.158878
lowerback -16.8249 -2.22284 1.85266
upperback -5.97621 -3.29794 2.09643
thorax 3.06474 -1.62782 0.531435
lowerneck -4.09527 -0.129032 -1.49486
upperneck 8.92302 0.0262166 -0.951246
head 3.60748 -0.0771123 -0.0492646
rclavicle 2.8948e-014 -6.36111e-015
rhumerus -101.716 -31.1821 20.532
rradius 10.9167
rwrist 68.6431
rhand -15.6691 -35.8842
rfingers 7.12502
rthumb 10.5194 -425.601
lclavicle 2.8948e-014 -6.36111e-015
lhumerus -18.6456 -5.07406 82.5636
lradius 53.3383
lwrist 15.0388
lhand -26.0673 -19.5779
lfingers 7.12502
lthumb 0.480714 10.4013
rfemur -49.7248 -2.19342 23.8515
rtibia 33.3251
rfoot -6.23883 1.29597
rtoes -21.6532
lfemur -3.20762 -0.213011 -18.2808
ltibia 37.8641
lfoot 6.0298 -16.1946
ltoes -6.35032
365
root 0.66379 15.7789 33.8764 17.5722 6.5407 -0.423853
lowerback -16.7559 -2.06813 2.28012
upperback -5.96702 -3.1656 2.20254
thorax 3.02042 -1.56493 0.430202
lowerneck -3.92541 -0.0909123 -1.41381
upperneck 8.63954 0.0832428 -1.16661
head 3.47546 -0.0518511 -0.130938
rclavicle 2.75814e-014 -1.19271e-014
rhumerus -101.781 -31.7076 20.8175
rradius 10.8131
rwrist 68.8834
rhand -16.0813 -35.4114
rfingers 7.12502
rthumb 10.1217 -425.148
lclavicle 2.75814e-014 -1.19271e-014
lhumerus -19.7035 -4.74063 82.7702
lradius 53.8044
lwrist 15.3734
lhand -25.8309 -19.2058
lfingers 7.12502
lthumb 0.709108 10.7727
rfemur -49.4905 -2.09069 24.2873
rtibia 34.6731
rfoot -6.78086 1.93751
rtoes -18.2365
lfemur -4.56154 -0.20383 -17.9899
ltibia 40.7884
lfoot 10.2063 -16.4228
ltoes -6.14072
